<mxfile host="app.diagrams.net" modified="2023-12-30T07:35:27.222Z" agent="Mozilla/5.0 (Windows NT 10.0; Win64; x64) AppleWebKit/537.36 (KHTML, like Gecko) Chrome/119.0.0.0 Safari/537.36 OPR/105.0.0.0" etag="lkd0X7E_Sug8Ef7b-SRc" version="22.1.16" type="device">
  <diagram name="Страница — 1" id="MYUk5d9XRaNZaV6O46Pn">
    <mxGraphModel dx="1247" dy="740" grid="1" gridSize="10" guides="1" tooltips="1" connect="1" arrows="1" fold="1" page="1" pageScale="1" pageWidth="1169" pageHeight="827" math="0" shadow="0">
      <root>
        <mxCell id="0" />
        <mxCell id="1" parent="0" />
        <mxCell id="RNdleMc3PWzquArP5q6n-3" style="edgeStyle=orthogonalEdgeStyle;rounded=0;orthogonalLoop=1;jettySize=auto;html=1;exitX=0.5;exitY=1;exitDx=0;exitDy=0;dashed=1;" edge="1" parent="1" source="RNdleMc3PWzquArP5q6n-2">
          <mxGeometry relative="1" as="geometry">
            <mxPoint x="400" y="160" as="targetPoint" />
          </mxGeometry>
        </mxCell>
        <mxCell id="RNdleMc3PWzquArP5q6n-2" value="project.exe" style="shape=module;align=left;spacingLeft=20;align=center;verticalAlign=top;whiteSpace=wrap;html=1;" vertex="1" parent="1">
          <mxGeometry x="350" y="70" width="100" height="50" as="geometry" />
        </mxCell>
        <mxCell id="RNdleMc3PWzquArP5q6n-4" value="project.dpr&lt;br&gt;файл проекта" style="shape=module;align=left;spacingLeft=20;align=center;verticalAlign=top;whiteSpace=wrap;html=1;" vertex="1" parent="1">
          <mxGeometry x="350" y="160" width="100" height="50" as="geometry" />
        </mxCell>
        <mxCell id="RNdleMc3PWzquArP5q6n-5" value="Unit1.dfm&lt;br&gt;Заставка" style="shape=module;align=left;spacingLeft=20;align=center;verticalAlign=top;whiteSpace=wrap;html=1;" vertex="1" parent="1">
          <mxGeometry x="350" y="250" width="100" height="50" as="geometry" />
        </mxCell>
        <mxCell id="RNdleMc3PWzquArP5q6n-6" value="Unit2.dfm&lt;br style=&quot;border-color: var(--border-color);&quot;&gt;Главная форма" style="shape=module;align=left;spacingLeft=20;align=center;verticalAlign=top;whiteSpace=wrap;html=1;" vertex="1" parent="1">
          <mxGeometry x="350" y="340" width="100" height="50" as="geometry" />
        </mxCell>
        <mxCell id="RNdleMc3PWzquArP5q6n-7" value="Unit3.dfm&lt;br style=&quot;border-color: var(--border-color);&quot;&gt;База данных" style="shape=module;align=left;spacingLeft=20;align=center;verticalAlign=top;whiteSpace=wrap;html=1;" vertex="1" parent="1">
          <mxGeometry x="350" y="430" width="100" height="50" as="geometry" />
        </mxCell>
        <mxCell id="RNdleMc3PWzquArP5q6n-8" value="Unit4.dfm&lt;br style=&quot;border-color: var(--border-color);&quot;&gt;Бронирование номера" style="shape=module;align=left;spacingLeft=20;align=center;verticalAlign=top;whiteSpace=wrap;html=1;" vertex="1" parent="1">
          <mxGeometry x="350" y="520" width="100" height="50" as="geometry" />
        </mxCell>
        <mxCell id="RNdleMc3PWzquArP5q6n-10" style="edgeStyle=orthogonalEdgeStyle;rounded=0;orthogonalLoop=1;jettySize=auto;html=1;exitX=0.5;exitY=1;exitDx=0;exitDy=0;dashed=1;" edge="1" parent="1">
          <mxGeometry relative="1" as="geometry">
            <mxPoint x="399.76" y="250" as="targetPoint" />
            <mxPoint x="399.76" y="210" as="sourcePoint" />
          </mxGeometry>
        </mxCell>
        <mxCell id="RNdleMc3PWzquArP5q6n-11" style="edgeStyle=orthogonalEdgeStyle;rounded=0;orthogonalLoop=1;jettySize=auto;html=1;exitX=0.5;exitY=1;exitDx=0;exitDy=0;dashed=1;" edge="1" parent="1">
          <mxGeometry relative="1" as="geometry">
            <mxPoint x="399.76" y="340" as="targetPoint" />
            <mxPoint x="399.76" y="300" as="sourcePoint" />
          </mxGeometry>
        </mxCell>
        <mxCell id="RNdleMc3PWzquArP5q6n-12" style="edgeStyle=orthogonalEdgeStyle;rounded=0;orthogonalLoop=1;jettySize=auto;html=1;exitX=0.5;exitY=1;exitDx=0;exitDy=0;dashed=1;" edge="1" parent="1">
          <mxGeometry relative="1" as="geometry">
            <mxPoint x="399.71999999999997" y="430" as="targetPoint" />
            <mxPoint x="399.71999999999997" y="390" as="sourcePoint" />
          </mxGeometry>
        </mxCell>
        <mxCell id="RNdleMc3PWzquArP5q6n-13" style="edgeStyle=orthogonalEdgeStyle;rounded=0;orthogonalLoop=1;jettySize=auto;html=1;exitX=0.5;exitY=1;exitDx=0;exitDy=0;dashed=1;" edge="1" parent="1">
          <mxGeometry relative="1" as="geometry">
            <mxPoint x="399.71999999999997" y="520" as="targetPoint" />
            <mxPoint x="399.71999999999997" y="480" as="sourcePoint" />
          </mxGeometry>
        </mxCell>
        <mxCell id="RNdleMc3PWzquArP5q6n-14" value="Unit5.dfm&lt;br style=&quot;border-color: var(--border-color);&quot;&gt;Конец" style="shape=module;align=left;spacingLeft=20;align=center;verticalAlign=top;whiteSpace=wrap;html=1;" vertex="1" parent="1">
          <mxGeometry x="350" y="610" width="100" height="50" as="geometry" />
        </mxCell>
        <mxCell id="RNdleMc3PWzquArP5q6n-15" style="edgeStyle=orthogonalEdgeStyle;rounded=0;orthogonalLoop=1;jettySize=auto;html=1;exitX=0.5;exitY=1;exitDx=0;exitDy=0;dashed=1;" edge="1" parent="1">
          <mxGeometry relative="1" as="geometry">
            <mxPoint x="399.64" y="610" as="targetPoint" />
            <mxPoint x="399.64" y="570" as="sourcePoint" />
          </mxGeometry>
        </mxCell>
        <mxCell id="RNdleMc3PWzquArP5q6n-16" value="Unit2.pas" style="shape=module;align=left;spacingLeft=20;align=center;verticalAlign=top;whiteSpace=wrap;html=1;" vertex="1" parent="1">
          <mxGeometry x="520" y="250" width="100" height="50" as="geometry" />
        </mxCell>
        <mxCell id="RNdleMc3PWzquArP5q6n-17" style="edgeStyle=orthogonalEdgeStyle;rounded=0;orthogonalLoop=1;jettySize=auto;html=1;exitX=1;exitY=0.5;exitDx=0;exitDy=0;entryX=0.108;entryY=0.493;entryDx=0;entryDy=0;entryPerimeter=0;dashed=1;" edge="1" parent="1" source="RNdleMc3PWzquArP5q6n-5" target="RNdleMc3PWzquArP5q6n-16">
          <mxGeometry relative="1" as="geometry" />
        </mxCell>
        <mxCell id="RNdleMc3PWzquArP5q6n-18" value="Unit2.pas" style="shape=module;align=left;spacingLeft=20;align=center;verticalAlign=top;whiteSpace=wrap;html=1;" vertex="1" parent="1">
          <mxGeometry x="520" y="340" width="100" height="50" as="geometry" />
        </mxCell>
        <mxCell id="RNdleMc3PWzquArP5q6n-19" style="edgeStyle=orthogonalEdgeStyle;rounded=0;orthogonalLoop=1;jettySize=auto;html=1;exitX=1;exitY=0.5;exitDx=0;exitDy=0;entryX=0.108;entryY=0.493;entryDx=0;entryDy=0;entryPerimeter=0;dashed=1;" edge="1" parent="1" target="RNdleMc3PWzquArP5q6n-18">
          <mxGeometry relative="1" as="geometry">
            <mxPoint x="450" y="365" as="sourcePoint" />
          </mxGeometry>
        </mxCell>
        <mxCell id="RNdleMc3PWzquArP5q6n-20" value="Unit3.pas" style="shape=module;align=left;spacingLeft=20;align=center;verticalAlign=top;whiteSpace=wrap;html=1;" vertex="1" parent="1">
          <mxGeometry x="520" y="430" width="100" height="50" as="geometry" />
        </mxCell>
        <mxCell id="RNdleMc3PWzquArP5q6n-21" style="edgeStyle=orthogonalEdgeStyle;rounded=0;orthogonalLoop=1;jettySize=auto;html=1;exitX=1;exitY=0.5;exitDx=0;exitDy=0;entryX=0.108;entryY=0.493;entryDx=0;entryDy=0;entryPerimeter=0;dashed=1;" edge="1" parent="1" target="RNdleMc3PWzquArP5q6n-20">
          <mxGeometry relative="1" as="geometry">
            <mxPoint x="450" y="455" as="sourcePoint" />
          </mxGeometry>
        </mxCell>
        <mxCell id="RNdleMc3PWzquArP5q6n-22" value="Unit4.pas" style="shape=module;align=left;spacingLeft=20;align=center;verticalAlign=top;whiteSpace=wrap;html=1;" vertex="1" parent="1">
          <mxGeometry x="520" y="520" width="100" height="50" as="geometry" />
        </mxCell>
        <mxCell id="RNdleMc3PWzquArP5q6n-23" style="edgeStyle=orthogonalEdgeStyle;rounded=0;orthogonalLoop=1;jettySize=auto;html=1;exitX=1;exitY=0.5;exitDx=0;exitDy=0;entryX=0.108;entryY=0.493;entryDx=0;entryDy=0;entryPerimeter=0;dashed=1;" edge="1" parent="1" target="RNdleMc3PWzquArP5q6n-22">
          <mxGeometry relative="1" as="geometry">
            <mxPoint x="450" y="545" as="sourcePoint" />
          </mxGeometry>
        </mxCell>
        <mxCell id="RNdleMc3PWzquArP5q6n-24" value="Unit5.pas" style="shape=module;align=left;spacingLeft=20;align=center;verticalAlign=top;whiteSpace=wrap;html=1;" vertex="1" parent="1">
          <mxGeometry x="520" y="610" width="100" height="50" as="geometry" />
        </mxCell>
        <mxCell id="RNdleMc3PWzquArP5q6n-25" style="edgeStyle=orthogonalEdgeStyle;rounded=0;orthogonalLoop=1;jettySize=auto;html=1;exitX=1;exitY=0.5;exitDx=0;exitDy=0;entryX=0.108;entryY=0.493;entryDx=0;entryDy=0;entryPerimeter=0;dashed=1;" edge="1" parent="1" target="RNdleMc3PWzquArP5q6n-24">
          <mxGeometry relative="1" as="geometry">
            <mxPoint x="450" y="635" as="sourcePoint" />
          </mxGeometry>
        </mxCell>
        <mxCell id="RNdleMc3PWzquArP5q6n-28" style="edgeStyle=orthogonalEdgeStyle;rounded=0;orthogonalLoop=1;jettySize=auto;html=1;exitX=0.5;exitY=0;exitDx=0;exitDy=0;exitPerimeter=0;dashed=1;" edge="1" parent="1" source="RNdleMc3PWzquArP5q6n-26">
          <mxGeometry relative="1" as="geometry">
            <mxPoint x="360" y="455.33333333333337" as="targetPoint" />
          </mxGeometry>
        </mxCell>
        <mxCell id="RNdleMc3PWzquArP5q6n-26" value="" style="shape=cylinder3;whiteSpace=wrap;html=1;boundedLbl=1;backgroundOutline=1;size=15;rotation=90;" vertex="1" parent="1">
          <mxGeometry x="230" y="405" width="40" height="100" as="geometry" />
        </mxCell>
        <mxCell id="RNdleMc3PWzquArP5q6n-27" value="БД.accdb" style="text;html=1;strokeColor=none;fillColor=none;align=center;verticalAlign=middle;whiteSpace=wrap;rounded=0;" vertex="1" parent="1">
          <mxGeometry x="210" y="440" width="60" height="30" as="geometry" />
        </mxCell>
        <mxCell id="RNdleMc3PWzquArP5q6n-31" style="edgeStyle=orthogonalEdgeStyle;rounded=0;orthogonalLoop=1;jettySize=auto;html=1;exitX=0.5;exitY=0;exitDx=0;exitDy=0;exitPerimeter=0;dashed=1;" edge="1" parent="1" source="RNdleMc3PWzquArP5q6n-32">
          <mxGeometry relative="1" as="geometry">
            <mxPoint x="360" y="365.33333333333337" as="targetPoint" />
          </mxGeometry>
        </mxCell>
        <mxCell id="RNdleMc3PWzquArP5q6n-32" value="" style="shape=cylinder3;whiteSpace=wrap;html=1;boundedLbl=1;backgroundOutline=1;size=15;rotation=90;" vertex="1" parent="1">
          <mxGeometry x="230" y="315" width="40" height="100" as="geometry" />
        </mxCell>
        <mxCell id="RNdleMc3PWzquArP5q6n-33" value="Справка" style="text;html=1;strokeColor=none;fillColor=none;align=center;verticalAlign=middle;whiteSpace=wrap;rounded=0;" vertex="1" parent="1">
          <mxGeometry x="210" y="350" width="60" height="30" as="geometry" />
        </mxCell>
      </root>
    </mxGraphModel>
  </diagram>
</mxfile>
